<?xml version="1.0" encoding="utf-8"?>
<!-- Generator: Adobe Illustrator 21.0.2, SVG Export Plug-In . SVG Version: 6.00 Build 0)  -->
<svg version="1.1" id="Capa_1" xmlns="http://www.w3.org/2000/svg" xmlns:xlink="http://www.w3.org/1999/xlink" x="0px" y="0px"
	 viewBox="0 0 59.8 59.8" style="enable-background:new 0 0 59.8 59.8;" xml:space="preserve">
<g>
	<path d="M56.6,58.1l-6-6.2c1.7-1.9,2.8-4.5,2.8-7.3c0-6-4.8-10.8-10.8-10.8s-10.8,4.8-10.8,10.8s4.8,10.8,10.8,10.8
		c2.4,0,4.7-0.8,6.5-2.2l6,6.3c0.2,0.2,0.5,0.3,0.7,0.3c0.2,0,0.5-0.1,0.7-0.3C57,59.2,57,58.5,56.6,58.1z M33.9,44.6
		c0-4.8,3.9-8.8,8.8-8.8s8.8,3.9,8.8,8.8s-3.9,8.8-8.8,8.8S33.9,49.5,33.9,44.6z"/>
	<path d="M39.7,23c0-0.6-0.4-1-1-1h-29c-0.6,0-1,0.4-1,1s0.4,1,1,1h29C39.3,24,39.7,23.6,39.7,23z"/>
	<path d="M29.9,34H9.7c-0.6,0-1,0.4-1,1s0.4,1,1,1h20.2c0.6,0,1-0.4,1-1S30.5,34,29.9,34z"/>
	<path d="M27.9,41c0-0.6-0.4-1-1-1H9.7c-0.6,0-1,0.4-1,1s0.4,1,1,1h17.2C27.5,42,27.9,41.6,27.9,41z"/>
	<path d="M9.7,28c-0.6,0-1,0.4-1,1s0.4,1,1,1h14c0.6,0,1-0.4,1-1s-0.4-1-1-1H9.7z"/>
	<path d="M39.7,29c0-0.6-0.4-1-1-1h-7c-0.6,0-1,0.4-1,1s0.4,1,1,1h7C39.3,30,39.7,29.6,39.7,29z"/>
	<path d="M28.9,56h-24V8h7v2c0,0.6,0.4,1,1,1h23c0.6,0,1-0.4,1-1V8h7v20c0,0.6,0.4,1,1,1s1-0.4,1-1V7c0-0.6-0.4-1-1-1h-8V4
		c0-0.6-0.4-1-1-1h-6V1c0-0.6-0.4-1-1-1h-9c-0.6,0-1,0.4-1,1v2h-6c-0.6,0-1,0.4-1,1v2h-8c-0.6,0-1,0.4-1,1v50c0,0.6,0.4,1,1,1h25
		c0.6,0,1-0.4,1-1S29.5,56,28.9,56z M20.9,2h7v2v2h-7V4V2z M13.9,5h5v2c0,0.6,0.4,1,1,1h9c0.6,0,1-0.4,1-1V5h5v2v2h-21V7
		C13.9,7,13.9,5,13.9,5z"/>
</g>
</svg>
