<?xml version="1.0"?>
<svg xmlns="http://www.w3.org/2000/svg" xmlns:xlink="http://www.w3.org/1999/xlink" version="1.1" viewBox="0 0 224 224" width="208px" height="208px"><g fill="none" fill-rule="nonzero" stroke="none" stroke-width="1" stroke-linecap="butt" stroke-linejoin="miter" stroke-miterlimit="10" stroke-dasharray="" stroke-dashoffset="0" font-family="none" font-weight="none" font-size="none" text-anchor="none" style="mix-blend-mode: normal"><path d="M0,224v-224h224v224z" fill="none"/><g fill="#ffffff"><g id="surface1"><path d="M172.30769,17.5c-4.74519,0 -8.61538,3.87019 -8.61538,8.61538v41.19231l-45.5,-45.5c-3.36538,-3.36538 -9.01923,-3.36538 -12.38462,0l-100.96154,101.23077c-3.36538,3.36538 -3.36538,8.75 0,12.11538c3.36538,3.36538 8.75,3.36538 12.11538,0l95.03846,-95.03846l95.30769,95.30769c1.6827,1.6827 3.97116,2.69231 6.19231,2.69231c2.22116,0 4.24039,-1.00961 5.92308,-2.69231c3.36538,-3.36538 3.36538,-8.75 0,-12.11538l-29.88462,-29.88462v-67.30769c0,-4.74519 -3.87019,-8.61538 -8.61538,-8.61538zM112,56l-94.76923,94.76923v47.38462c0,14.26923 11.57692,25.84615 25.84615,25.84615h137.84615c14.26923,0 25.84615,-11.57692 25.84615,-25.84615v-47.38462zM94.76923,137.84615h34.46154c4.74519,0 8.61538,3.87019 8.61538,8.61538v51.69231c0,4.74519 -3.87019,8.61538 -8.61538,8.61538h-34.46154c-4.74519,0 -8.61538,-3.87019 -8.61538,-8.61538v-51.69231c0,-4.74519 3.87019,-8.61538 8.61538,-8.61538z"/></g></g></g></svg>
