<svg id="Layer_1" data-name="Layer 1" xmlns="http://www.w3.org/2000/svg" viewBox="0 0 1807.12 545.82"><defs><style>.cls-1{fill:#3d3d3d;}.cls-2{fill:#3f67b1;}</style></defs><title>logo-bottis</title><path class="cls-1" d="M744.87,689.32c-10,0-15.49,24.6-15.49,24.6l-29.61-1.82V423.77h52.84v96.11l31.88-12.75c16.4-6.38,31.43-11.39,45.09-11.39,48.28,0,80.62,44.18,80.62,110.23s-32.34,109.77-80.62,109.77c-13.66,0-28.7-5-45.09-11.39l-36-14.12A10.71,10.71,0,0,0,744.87,689.32Zm7.74-18.22,39.17,12.3c12.3,4.1,20,5.47,26.87,5.47,24.14,0,36.44-29.15,36.44-82.9,0-54.2-12.3-83.35-36.44-83.35-6.83,0-14.58,1.37-26.87,5.47l-39.17,12.3Z" transform="translate(-52.76 -288.31)"/><path class="cls-1" d="M1166.19,606c0,66-44.64,109.77-112,109.77S942.09,672,942.09,606s44.64-110.23,112.05-110.23S1166.19,539.92,1166.19,606Zm-54.66,0c0-56.48-23.23-86.54-67-86.54-31.43,0-47.83,30.06-47.83,86.09,0,56.48,23.23,86.54,67,86.54C1095.13,692,1111.53,662,1111.53,606Z" transform="translate(-52.76 -288.31)"/><path class="cls-1" d="M1181.22,529.9V507.12H1219v-41.9l53.29-15v56.94c38.72,0,60.12-3.64,68.32-3.64V529.9h-68.32v56.94c0,19.59-5,61-5,68.78,0,21.86,12.75,33.71,36,33.71,6.83,0,19.13-3.64,25.05-5.92l8.2,21c-15,6.38-42.36,11.39-51,11.39-40.08,0-66.5-21-66.5-52.84v-133Z" transform="translate(-52.76 -288.31)"/><path class="cls-1" d="M1359.31,529.9V507.12h37.81v-41.9l53.29-15v56.94c38.72,0,60.12-3.64,68.32-3.64V529.9h-68.32v56.94c0,19.59-5,61-5,68.78,0,21.86,12.75,33.71,36,33.71,6.83,0,19.13-3.64,25.05-5.92l8.2,21c-15,6.38-42.36,11.39-51,11.39-40.08,0-66.5-21-66.5-52.84v-133Z" transform="translate(-52.76 -288.31)"/><path class="cls-1" d="M1600.26,457.93h-26.87c-11.39,0-13.21-5.92-13.21-9.56V425.13c0-3.64,1.82-9.11,13.21-9.11h26.87c11.39,0,13.21,4.55,13.21,9.11v23.23C1613.47,452.92,1611.64,457.93,1600.26,457.93Zm-40.08,41.45H1613V712.09h-52.84Z" transform="translate(-52.76 -288.31)"/><path class="cls-1" d="M1669,667.45l8.65,3.64C1710,685.67,1733.26,693,1753.75,693c37.81,0,58.3-9.57,58.3-28.24,0-16.85-30.52-32.34-67-45.55-35.53-13.21-78.8-28.7-78.8-67.41,0-33.71,36.44-56,91.1-56,36,0,66,6.38,89.73,15l-10.93,29.61-9.56-4.56c-36-15.94-47.37-17.31-68.32-17.31-31.43,0-48.74,7.74-48.74,21.86,0,15,31.43,29.15,68.78,42.82,36.89,13.66,81.53,30.52,81.53,71.51,0,36.89-42.36,61-106.13,61-40.08,0-71.51-10.48-95.2-19.13Z" transform="translate(-52.76 -288.31)"/><path class="cls-1" d="M578.15,498.23c.28,20.77.51,45.61-1.08,70.38a255.35,255.35,0,0,1-33.33,110.85C517.32,726,479,760.05,432.5,785.8c-26.82,14.86-53.18,30.54-79.77,45.83-2,1.15-4,3.54-6.42,2-2-1.28-1.07-4-1-6.15.65-44.26,20.81-77.17,58.39-99.78,19.54-11.76,40-22,57-37.72,28-26,44.61-57.71,51-95.32,3.39-20,1.68-39.94,2.2-59.91,1.12-43.07,20.29-75.63,56.76-98.2,6.14-3.8,7.46-3.12,7.51,4.1C578.24,458.49,578.15,476.34,578.15,498.23Z" transform="translate(-52.76 -288.31)"/><path class="cls-1" d="M117,549c-.7,24.57.49,48.34,8.08,71.48,13.15,40.09,38.58,70,74.43,91.61,17.85,10.74,37.1,19.38,52.16,34.37,22.06,21.95,33,48.62,33.83,79.58.11,4.26-.07,7.82-6,4.32-36-21.19-73.21-40.38-108.06-63.39-56.87-37.55-93.87-89.84-110.48-156a263,263,0,0,1-8-65.24c.14-34.4,0-68.8.08-103.2,0-2.52-1-5.74,1.57-7.28s4.88,1.1,7,2.39c28,17.45,45.39,42.23,53.16,74.39C117.66,524.53,115.91,537,117,549Z" transform="translate(-52.76 -288.31)"/><path class="cls-2" d="M313.36,288.38c53.46-.82,100.69,15,145,41.24C485,345.37,511.88,360.54,538.61,376c2.15,1.25,5.67,1.88,5.57,4.87-.11,3.21-3.68,3.93-6.09,5.22-23.74,12.65-49,16.35-75.32,11.67C447,395,432.63,388,418.94,379.72c-20.69-12.56-41.62-24.74-65.73-29.6-12.17-2.45-24.66-2.17-37-3-34.31-2.41-64.49,8.76-93.27,26.17-16.13,9.76-32.28,19.81-51.3,23.67-28.19,5.72-55,2.45-80.27-11.47-6.09-3.35-6.28-5.31-.82-8.39,36.56-20.65,71.89-43.58,109.57-62.11C236,297.29,274.26,287.36,313.36,288.38Z" transform="translate(-52.76 -288.31)"/><path class="cls-1" d="M296.59,557.33c5-7.41,9.71-14.41,14.44-21.4,4.24-6.26,8.58-12.47,12.72-18.79a4.58,4.58,0,0,1,4.34-2.29c12.33-.07,24.68.1,37-.51,9.38-.46,19.93-7.66,21.56-19,1.8-12.56-5.8-22-15.47-24.34-3.56-.86-7.43-.46-11.16-.64l-4.44-.21c2.75-4.14,5.12-7.78,7.56-11.39,6.45-9.51,13-18.94,19.31-28.55,1.11-1.69,2.31-1.91,3.67-1.45,5.24,1.77,10.75,3.13,15.56,5.74,15.53,8.43,24.72,21.69,28.61,38.92,5.11,22.62-4,45.53-23.51,57.86a9.24,9.24,0,0,0-1.17,1c4.46,4.13,9.2,8,13.26,12.43,6.25,6.85,10.16,15.11,12.87,24a72.61,72.61,0,0,1,2.68,31c-2.53,19.18-10.81,35.15-27.27,46.26-11.4,7.7-24.17,10.91-37.66,11.44-9.52.38-19.06.17-28.59.11h-7.11q-51.72.07-103.45,0a8.55,8.55,0,0,1-1.27-.28c1.52-2.36,2.88-4.59,4.36-6.75,7.77-11.4,15.52-22.81,23.42-34.11a4.83,4.83,0,0,1,3.53-1.42c19.9,0,39.8.27,59.71.27,15.32,0,30.65-.17,46-.41,11.13-.17,19.68-5,24.38-15.25,2.89-6.26,3.13-13,1.25-19.83a28.69,28.69,0,0,0-12.33-17c-5.64-3.71-12-5-18.61-5-20.19-.05-40.37,0-60.56,0C299.11,557.52,298,557.41,296.59,557.33Z" transform="translate(-52.76 -288.31)"/><path class="cls-2" d="M208.59,656.25c0-1.23,0-2.19,0-3.16,0-56.72-.12-113.44.06-170.15.06-19.1,9.25-33.42,25.09-43.6,10.72-6.89,22.62-9.59,35.31-9.55,29.71.1,59.43,0,89.14,0h4.24c-3.18,4.73-5.93,8.84-8.7,12.94-5.93,8.77-11.94,17.5-17.78,26.33-1.52,2.3-3.11,3.39-6.05,3.37-18.22-.16-36.44,0-54.66-.1-7.78,0-14.27,2.54-19.13,8.81a21.9,21.9,0,0,0-4.7,13.89c0,31,0,62,.09,93.07a17,17,0,0,1-3,10.27c-13,19-25.83,38.19-38.73,57.29C209.63,655.88,209.29,655.93,208.59,656.25Z" transform="translate(-52.76 -288.31)"/></svg>