<svg id="Layer_1" data-name="Layer 1" xmlns="http://www.w3.org/2000/svg" viewBox="0 0 805 432.09"><defs><style>.cls-1{fill:#627928;}.cls-1,.cls-2{fill-rule:evenodd;}.cls-2{fill:#b5d100;}</style></defs><title>Medifirst2000</title><path class="cls-1" d="M345.87,184.46c-6.8-24.64-31.76-24.64-76.9-4,29.94-36,95.91-77.18,125.74-65.83,15.88,9.37,18.16,27.58,4.67,64.1q-17.21,44.9-34.46,89.88L438.85,189c10.85-11.79,21.2-17.12,39.21-10.31,16.22,9.25,11.25,18.81,7.46,33.26q-15.34,36.41-30.74,72.87,34.55-33,69.13-65.9c15.86-16.74,47.32,1.7,38.29,23.56q-20.53,50-41.09,100c-6.34,11.59,1.26,23.53,19.56,22.81,20.4-1.64,31.92-10.18,43.63-21.54-11.07,20.19-46.74,39.61-84.79,31.16-20.84-3.8-32.78-22.12-25.94-34.21q14.28-34.4,28.59-68.85-38.71,40.49-77.44,81c-14.07,18.57-49.88,6.63-38.32-20.9q19.93-47,39.81-93.94-45.66,52.75-91.33,105.59c-11.19,15.72-41.78,21.24-53.69,8.26C318.44,298.71,352.07,196.69,345.87,184.46Z" transform="translate(-16.5 -82.64)"/><path class="cls-2" d="M525.28,344.11a1.25,1.25,0,0,1-.22.46c-2,3.69-2.17,7.32-.44,10.18,2.26,3.8,7.53,6,14.47,6,.46,0,.93,0,1.37,0,10.17-.84,17.92-3.47,24.92-7.66,8.86-25.69,6.71-53.26-11.45-78.58Z" transform="translate(-16.5 -82.64)"/><path class="cls-2" d="M388.77,219.09l-11.28,29.34,25.65-27.66C398.23,220,393.47,219.49,388.77,219.09Z" transform="translate(-16.5 -82.64)"/><path class="cls-2" d="M486,222.42,467.41,266.5l36.13-34.44C498,228.75,492.11,225.54,486,222.42Z" transform="translate(-16.5 -82.64)"/><path class="cls-2" d="M392.39,209.65c5.65,1.44,11.27,2.94,16.83,4.62l15.31-16.52c-8-2.52-16.32-4.88-24.9-7.05Z" transform="translate(-16.5 -82.64)"/><path class="cls-2" d="M576.45,133.75c-121.31-59-307.89-62.26-402.81-33.39C326.4,82.68,500.72,105.83,604,199.61c91.84,76.72,27.51,169.33-51.72,179.65,1.38-2,2.57-4,3.79-6.07a92.26,92.26,0,0,1-38,8.21,90.07,90.07,0,0,1-19.51-2.14c-12.92-2.35-24.06-10.3-29-20.73-3.28-6.92-3.28-14-.06-19.86l19.18-46.22-60.5,63.28a27.57,27.57,0,0,1-22.08,10.54c-9.35,0-18.07-4.36-22.7-11.36s-4.94-15.65-1.13-24.74l28.62-67.58-72.63,83.92c-7.09,10.09-22.16,17.08-37.26,17.08-9.75,0-18-3.11-23.15-8.74a4.54,4.54,0,0,1-.38-5.65c26.65-38,48.18-94,58.34-129.54-68.31,8.92-101.63,49-104.19,73.84C212.14,407.8,431.9,445.43,513.39,414.8c107.77-12.43,179.35-52.57,187.55-119.22C703.44,235.1,674.16,184.11,576.45,133.75Z" transform="translate(-16.5 -82.64)"/><path class="cls-2" d="M311.6,471.1c-81.19-22-154.17-59.6-207.35-108.76-67-66.48-58.81-124,33.43-151.07,72.32-17.66,140.26-20.66,203.14-11.8,1.32-6.73,1.75-11.32,1-13,0-.15-.23-.61-.29-.8a26.71,26.71,0,0,0-2.79-6.71q-20.8-2.85-42.89-4.28a231.85,231.85,0,0,0-25,9.93A4.6,4.6,0,0,1,269,185a4.53,4.53,0,0,1-3.48-7.43c1.15-1.36,2.39-2.75,3.61-4.1a664,664,0,0,0-134,11.07C12.34,208-35.36,301.27,90.85,397.3c65.27,47.33,143.09,75.91,220.75,90.25Z" transform="translate(-16.5 -82.64)"/><polygon class="cls-1" points="331.65 419.38 346.48 375.23 364.02 375.23 364.02 431.75 352.58 431.75 352.58 389.3 337.75 431.75 325.38 431.75 311.4 389.3 311.4 431.75 299.97 431.75 299.97 375.23 317.59 375.23 331.65 419.38"/><path class="cls-1" d="M417.43,498.12H393.54a10,10,0,0,0,.85,3.73,6.42,6.42,0,0,0,2.2,2.36,6.87,6.87,0,0,0,2.71,1.16,23.42,23.42,0,0,0,4.24.3h13.9v8.73H402.35a31.11,31.11,0,0,1-8-.85,16.57,16.57,0,0,1-5.89-3.05Q381,504.81,381,493.2a23.39,23.39,0,0,1,2.16-10,16.68,16.68,0,0,1,5.89-7.07,15.62,15.62,0,0,1,5.3-2.29,32.24,32.24,0,0,1,7.16-.68h15.93v8.73H402.35a18.18,18.18,0,0,0-3.9.35,6,6,0,0,0-2.63,1.2,5.63,5.63,0,0,0-1.57,2.34,13.62,13.62,0,0,0-.72,3.64h23.89Z" transform="translate(-16.5 -82.64)"/><path class="cls-1" d="M446.2,457.87h11.44v56.51H438.07a51.46,51.46,0,0,1-5.42-.25,20.4,20.4,0,0,1-4.28-.89,16.33,16.33,0,0,1-3.47-1.61,17.41,17.41,0,0,1-3.09-2.5Q416,503.46,416,493.46q0-10.93,7.44-16.78,4.55-3.56,12.16-3.56H446.2V457.87Zm0,24H438a10,10,0,0,0-7.8,3.08q-2.8,3.07-2.8,8.53,0,5.72,2.84,9a9.78,9.78,0,0,0,7.75,3.25h8.22Z" transform="translate(-16.5 -82.64)"/><path class="cls-1" d="M472.27,473.12v41.26H460.83V473.12Zm-11.44-15.25h11.44v11H460.83Z" transform="translate(-16.5 -82.64)"/><path class="cls-1" d="M516,514.39H504.6V481.85H490.11v32.54H478.67V481.85h-7.46v-8.73h7.46v-2.46q0-6.78,2.85-9.79t9.18-3H499v8.73h-4.07a5.23,5.23,0,0,0-3.73,1.07,4.84,4.84,0,0,0-1.1,3.56v1.89H516v41.26ZM504.6,457.87H516v11H504.6Z" transform="translate(-16.5 -82.64)"/><path class="cls-1" d="M535.91,473.12a35.81,35.81,0,0,1,8,.68,10.56,10.56,0,0,1,4.74,2.43,9,9,0,0,1,2.63,4.19,26.14,26.14,0,0,1,.76,7.19v4.07H541.08v-2.2c0-2.94-.52-4.94-1.55-6s-2.92-1.61-5.68-1.61h-3.28v32.54H519.14V473.12Z" transform="translate(-16.5 -82.64)"/><path class="cls-1" d="M587.14,481.85H567c-2.54,0-4.22.24-5,.73s-1.23,1.47-1.23,3a3.89,3.89,0,0,0,1.95,3.52,4.71,4.71,0,0,0,1.78.47q1.19.13,3.64.13h6.69q6.86,0,10.55,3.05t3.69,8.73a14,14,0,0,1-.51,3.77,15.92,15.92,0,0,1-1.4,3.43,12.63,12.63,0,0,1-2.12,2.84,8.18,8.18,0,0,1-2.67,1.82q-2.29,1.1-9.24,1.1H549.61v-8.73h20.17q2.12,0,3.39,0t1.95-.13a3,3,0,0,0,2.8-3.35,4.39,4.39,0,0,0-.55-2.23,3.3,3.3,0,0,0-1.57-1.37,3.92,3.92,0,0,0-1.61-.42q-1-.09-3.14-.08h-6.95a27.94,27.94,0,0,1-6.31-.55,10.91,10.91,0,0,1-4.11-2,11.36,11.36,0,0,1-3.43-4.41,14.2,14.2,0,0,1-1.23-5.93,13.13,13.13,0,0,1,1.27-5.72,11.8,11.8,0,0,1,3.47-4.36,8.49,8.49,0,0,1,3.52-1.53,29.49,29.49,0,0,1,5.63-.42h24.23Z" transform="translate(-16.5 -82.64)"/><path class="cls-1" d="M592.36,457.87H603.8v15.25H614.3v8.73H603.8V497a40.31,40.31,0,0,0,.17,4.52,4.79,4.79,0,0,0,.76,2.13c.9,1.37,2.6,2,5.08,2h4.49v8.73h-8.22a21,21,0,0,1-6-.72,9.58,9.58,0,0,1-4.1-2.43,9.91,9.91,0,0,1-2.91-4.66,30.27,30.27,0,0,1-.76-7.74v-17h-7.2v-8.73h7.2Z" transform="translate(-16.5 -82.64)"/><path class="cls-1" d="M660.28,504.3v10.08h-49v-15a26.82,26.82,0,0,1,1.19-8.57,15.15,15.15,0,0,1,3.64-5.95,14.94,14.94,0,0,1,2.25-1.88,8.47,8.47,0,0,1,2.67-1.14,22.5,22.5,0,0,1,3.52-.55q2-.17,5-.17h9.24a20.69,20.69,0,0,0,4-.38,10.18,10.18,0,0,0,2.88-.88,5.47,5.47,0,0,0,2.8-5,7.23,7.23,0,0,0-.8-3.39,5.34,5.34,0,0,0-2.16-2.3,9.34,9.34,0,0,0-2.8-.83,21.74,21.74,0,0,0-3.9-.34H612.24V457.87H641.3a39.45,39.45,0,0,1,9.49.93,14,14,0,0,1,5.93,3,13.78,13.78,0,0,1,3.6,5.38,19.43,19.43,0,0,1,1.31,7.16,20.64,20.64,0,0,1-1.82,9,12.07,12.07,0,0,1-5,5.59c-2.81,1.52-7,2.29-12.6,2.29h-8a26.19,26.19,0,0,0-6.51.59,5.07,5.07,0,0,0-3,2,7.53,7.53,0,0,0-.89,2.4,13.89,13.89,0,0,0-.38,3.15v5Z" transform="translate(-16.5 -82.64)"/><path class="cls-1" d="M687,457.53q27.79,0,27.79,28.55,0,14.57-6.52,21.61t-20,7q-14.83,0-22-7t-7.2-21.48q0-14.83,6.78-21.78T687,457.53Zm-.68,9.57a14.34,14.34,0,0,0-7.08,1.72,11.68,11.68,0,0,0-4.7,4.77A23.27,23.27,0,0,0,673,479a34.54,34.54,0,0,0-.68,6.71,38.2,38.2,0,0,0,.8,7.77,21.52,21.52,0,0,0,2,6,10.23,10.23,0,0,0,4.74,4.34,18.78,18.78,0,0,0,7.8,1.4,14.55,14.55,0,0,0,7.37-1.64,11.59,11.59,0,0,0,4.49-5.28,21.08,21.08,0,0,0,1.53-5.48,42.88,42.88,0,0,0,.59-7.09,30.63,30.63,0,0,0-1.06-8.26,15.6,15.6,0,0,0-2.92-6,11,11,0,0,0-4.7-3.16A18.33,18.33,0,0,0,686.34,467.11Z" transform="translate(-16.5 -82.64)"/><path class="cls-1" d="M740.36,457.53q27.79,0,27.79,28.55,0,14.57-6.52,21.61t-20,7q-14.83,0-22-7t-7.2-21.48q0-14.83,6.78-21.78t21.18-6.95Zm-.68,9.57a14.34,14.34,0,0,0-7.08,1.72,11.68,11.68,0,0,0-4.7,4.77A23.28,23.28,0,0,0,726.3,479a34.54,34.54,0,0,0-.68,6.71,38.2,38.2,0,0,0,.8,7.77,21.52,21.52,0,0,0,2,6,10.23,10.23,0,0,0,4.74,4.34,18.78,18.78,0,0,0,7.8,1.4,14.54,14.54,0,0,0,7.37-1.64,11.59,11.59,0,0,0,4.49-5.28,21.08,21.08,0,0,0,1.53-5.48,42.88,42.88,0,0,0,.59-7.09,30.63,30.63,0,0,0-1.06-8.26,15.6,15.6,0,0,0-2.92-6,10.94,10.94,0,0,0-4.7-3.16A18.33,18.33,0,0,0,739.69,467.11Z" transform="translate(-16.5 -82.64)"/><path class="cls-1" d="M793.71,457.53q27.79,0,27.79,28.55,0,14.57-6.52,21.61t-20,7q-14.83,0-22-7t-7.2-21.48q0-14.83,6.78-21.78t21.18-6.95Zm-.68,9.57a14.34,14.34,0,0,0-7.08,1.72,11.68,11.68,0,0,0-4.7,4.77,23.26,23.26,0,0,0-1.61,5.35,34.54,34.54,0,0,0-.68,6.71,38.2,38.2,0,0,0,.8,7.77,21.52,21.52,0,0,0,2,6,10.23,10.23,0,0,0,4.74,4.34,18.78,18.78,0,0,0,7.8,1.4,14.54,14.54,0,0,0,7.37-1.64,11.59,11.59,0,0,0,4.49-5.28,21.06,21.06,0,0,0,1.52-5.48,42.88,42.88,0,0,0,.59-7.09,30.64,30.64,0,0,0-1.06-8.26,15.6,15.6,0,0,0-2.92-6,10.94,10.94,0,0,0-4.7-3.16A18.33,18.33,0,0,0,793,467.11Z" transform="translate(-16.5 -82.64)"/></svg>