<?xml version="1.0" encoding="utf-8"?>
<!-- Generator: Adobe Illustrator 16.0.0, SVG Export Plug-In . SVG Version: 6.00 Build 0)  -->
<!DOCTYPE svg PUBLIC "-//W3C//DTD SVG 1.1//EN" "http://www.w3.org/Graphics/SVG/1.1/DTD/svg11.dtd">
<svg version="1.1" id="Layer_1" xmlns="http://www.w3.org/2000/svg" xmlns:xlink="http://www.w3.org/1999/xlink" x="0px" y="0px"
	 width="214.249px" height="115px" viewBox="0 0 214.249 115" enable-background="new 0 0 214.249 115" xml:space="preserve">
<g>
	<path fill-rule="evenodd" clip-rule="evenodd" fill="#667C35" d="M87.66,27.101c-1.812-6.56-8.454-6.56-20.467-1.053
		c7.968-9.579,25.526-20.54,33.467-17.521c4.225,2.494,4.833,7.339,1.244,17.063c-3.052,7.965-6.112,15.94-9.172,23.919
		c6.561-7.073,13.116-14.143,19.678-21.213c2.886-3.137,5.643-4.557,10.434-2.745c4.315,2.458,2.995,5.003,1.986,8.852
		c-2.723,6.46-5.453,12.93-8.182,19.395c6.13-5.847,12.268-11.694,18.399-17.54c4.22-4.454,12.591,0.456,10.191,6.271
		c-3.642,8.871-7.286,17.739-10.933,26.611c-1.688,3.082,0.334,6.262,5.204,6.07c5.431-0.436,8.494-2.708,11.613-5.732
		c-2.948,5.373-12.442,10.543-22.567,8.297c-5.549-1.016-8.726-5.889-6.901-9.107c2.532-6.103,5.073-12.218,7.609-18.324
		c-6.868,7.184-13.74,14.371-20.611,21.56c-3.742,4.945-13.274,1.768-10.197-5.563c3.537-8.332,7.061-16.665,10.592-25
		c-8.099,9.36-16.211,18.734-24.305,28.103c-2.978,4.184-11.12,5.654-14.29,2.197C80.362,57.506,89.311,30.356,87.66,27.101z"/>
	<path fill-rule="evenodd" clip-rule="evenodd" fill="#B6D11C" d="M135.411,69.59c-0.01,0.043-0.027,0.086-0.059,0.121
		c-0.53,0.982-0.578,1.949-0.117,2.709c0.6,1.013,2.004,1.596,3.852,1.596c0.121,0,0.244-0.004,0.365-0.009
		c2.703-0.224,4.766-0.922,6.631-2.042c2.358-6.833,1.787-14.174-3.049-20.913L135.411,69.59z"/>
	<path fill-rule="evenodd" clip-rule="evenodd" fill="#B6D11C" d="M99.078,36.316l-3.001,7.808l6.829-7.364
		C101.597,36.568,100.331,36.423,99.078,36.316z"/>
	<path fill-rule="evenodd" clip-rule="evenodd" fill="#B6D11C" d="M124.956,37.202l-4.949,11.732l9.616-9.167
		C128.145,38.888,126.582,38.034,124.956,37.202z"/>
	<path fill-rule="evenodd" clip-rule="evenodd" fill="#B6D11C" d="M100.042,33.802c1.501,0.386,2.998,0.785,4.478,1.231l4.076-4.401
		c-2.143-0.667-4.347-1.297-6.628-1.875L100.042,33.802z"/>
	<path fill-rule="evenodd" clip-rule="evenodd" fill="#B6D11C" d="M149.03,13.604C116.741-2.101,67.085-2.969,41.823,4.716
		c40.654-4.704,87.053,1.457,114.541,26.415c24.443,20.417,7.322,45.065-13.766,47.813c0.365-0.53,0.686-1.074,1.008-1.615
		c-2.936,1.33-6.379,2.186-10.121,2.186c-1.736,0-3.484-0.191-5.193-0.57c-3.439-0.625-6.405-2.741-7.707-5.517
		c-0.871-1.842-0.871-3.716-0.018-5.286l5.104-12.3L109.57,72.684c-1.382,1.785-3.515,2.803-5.873,2.803
		c-2.49,0-4.813-1.158-6.042-3.023c-1.216-1.822-1.317-4.165-0.304-6.582l7.618-17.988L85.638,70.228
		c-1.886,2.687-5.896,4.546-9.916,4.546c-2.595,0-4.793-0.828-6.16-2.326c-0.383-0.41-0.419-1.041-0.101-1.504
		C76.553,60.84,82.283,45.935,84.99,36.468c-18.182,2.373-27.049,13.05-27.731,19.653c-5.189,30.42,53.298,40.434,74.985,32.282
		c28.683-3.307,47.735-13.989,49.92-31.729C182.826,40.579,175.035,27.007,149.03,13.604z"/>
	<path fill-rule="evenodd" clip-rule="evenodd" fill="#B6D11C" d="M78.541,103.389c-21.607-5.857-41.03-15.861-55.186-28.945
		C5.532,56.751,7.703,41.453,32.251,34.236c19.247-4.702,37.327-5.5,54.066-3.142c0.352-1.791,0.466-3.011,0.264-3.46
		c-0.005-0.042-0.059-0.163-0.076-0.213c-0.188-0.688-0.444-1.283-0.744-1.786c-3.692-0.506-7.499-0.89-11.414-1.138
		c-1.956,0.637-4.169,1.502-6.651,2.643c-0.166,0.074-0.328,0.115-0.499,0.115c-0.367,0-0.725-0.167-0.96-0.477
		c-0.343-0.444-0.331-1.072,0.034-1.502c0.307-0.359,0.638-0.73,0.96-1.09c-11.236-0.228-23.223,0.646-35.674,2.945
		C-1.105,33.359-13.804,58.188,19.79,83.744c17.37,12.6,38.082,20.203,58.751,24.022V103.389z"/>
	<polygon fill-rule="evenodd" clip-rule="evenodd" fill="#B6D11C" points="88.269,111.613 92.217,99.867 96.882,99.867 
		96.882,114.908 93.839,114.908 93.839,103.609 89.892,114.908 86.598,114.908 82.878,103.609 82.878,114.908 79.834,114.908 
		79.834,99.867 84.526,99.867 	"/>
	<path fill-rule="evenodd" clip-rule="evenodd" fill="#B6D11C" d="M106.707,110.578h-6.359c0.03,0.425,0.104,0.757,0.225,0.991
		c0.12,0.239,0.317,0.444,0.586,0.63c0.21,0.15,0.451,0.255,0.721,0.307c0.269,0.054,0.646,0.08,1.126,0.08h3.7v2.322h-4.016
		c-0.87,0-1.581-0.076-2.13-0.227c-0.548-0.15-1.07-0.419-1.568-0.811c-1.322-1.01-1.984-2.542-1.984-4.6
		c0-0.963,0.191-1.854,0.576-2.674c0.386-0.818,0.907-1.448,1.566-1.883c0.421-0.287,0.891-0.488,1.41-0.607
		c0.519-0.122,1.154-0.182,1.906-0.182h4.239v2.322h-4.016c-0.404,0-0.752,0.031-1.036,0.092c-0.286,0.063-0.519,0.172-0.699,0.322
		c-0.183,0.152-0.32,0.365-0.418,0.623c-0.098,0.264-0.161,0.588-0.19,0.969h6.359V110.578z"/>
	<path fill-rule="evenodd" clip-rule="evenodd" fill="#B6D11C" d="M114.366,99.867h3.043v15.041h-5.211
		c-0.539,0-1.021-0.023-1.443-0.068s-0.8-0.124-1.137-0.236c-0.339-0.113-0.645-0.256-0.927-0.429
		c-0.278-0.171-0.55-0.396-0.823-0.665c-1.035-1.007-1.555-2.398-1.555-4.172c0-1.938,0.662-3.428,1.982-4.465
		c0.806-0.631,1.887-0.947,3.234-0.947h2.836V99.867L114.366,99.867z M114.366,106.248h-2.191c-0.887,0-1.577,0.276-2.074,0.819
		c-0.494,0.544-0.744,1.3-0.744,2.271c0,1.015,0.254,1.809,0.757,2.383c0.505,0.574,1.192,0.865,2.062,0.865h2.191V106.248z"/>
	<path fill-rule="evenodd" clip-rule="evenodd" fill="#B6D11C" d="M121.299,103.926v10.982h-3.043v-10.982H121.299L121.299,103.926z
		 M118.256,99.867h3.043v2.93h-3.043V99.867z"/>
	<path fill-rule="evenodd" clip-rule="evenodd" fill="#B6D11C" d="M132.949,114.908h-3.044v-8.66h-3.855v8.66h-3.045v-8.66h-1.982
		v-2.322h1.982v-0.652c0-1.205,0.252-2.072,0.761-2.605c0.509-0.535,1.321-0.801,2.442-0.801h2.211v2.322h-1.085
		c-0.467,0-0.794,0.094-0.991,0.285c-0.196,0.193-0.293,0.509-0.293,0.947v0.504h6.899V114.908L132.949,114.908z M129.905,99.867
		h3.044v2.93h-3.044V99.867z"/>
	<path fill-rule="evenodd" clip-rule="evenodd" fill="#B6D11C" d="M138.241,103.926c0.915,0,1.623,0.06,2.119,0.182
		c0.494,0.115,0.916,0.332,1.262,0.646c0.33,0.295,0.564,0.668,0.701,1.114c0.136,0.448,0.203,1.089,0.203,1.915v1.08h-2.91v-0.587
		c0-0.78-0.139-1.314-0.414-1.598c-0.279-0.287-0.779-0.431-1.511-0.431h-0.87v8.66h-3.047v-10.982H138.241z"/>
	<path fill-rule="evenodd" clip-rule="evenodd" fill="#B6D11C" d="M151.875,106.248h-5.368c-0.676,0-1.122,0.064-1.342,0.193
		c-0.217,0.131-0.326,0.395-0.326,0.787c0,0.411,0.175,0.725,0.518,0.938c0.107,0.059,0.264,0.102,0.475,0.123
		c0.211,0.023,0.535,0.033,0.971,0.033h1.78c1.218,0,2.153,0.271,2.809,0.813c0.653,0.54,0.979,1.315,0.979,2.321
		c0,0.348-0.047,0.682-0.137,1.006c-0.089,0.322-0.212,0.625-0.369,0.912c-0.158,0.283-0.346,0.537-0.564,0.755
		s-0.455,0.378-0.709,0.483c-0.406,0.198-1.226,0.295-2.457,0.295h-6.248v-2.322h5.365c0.377,0,0.676-0.004,0.904-0.012
		c0.225-0.008,0.398-0.019,0.517-0.035c0.497-0.074,0.743-0.371,0.743-0.889c0-0.228-0.047-0.426-0.146-0.594
		c-0.098-0.166-0.235-0.285-0.415-0.365c-0.107-0.062-0.251-0.1-0.43-0.113c-0.18-0.015-0.457-0.021-0.834-0.021h-1.85
		c-0.723,0-1.281-0.05-1.68-0.148c-0.398-0.096-0.764-0.275-1.096-0.529c-0.389-0.298-0.692-0.69-0.912-1.172
		c-0.219-0.482-0.328-1.011-0.328-1.577c0-0.542,0.115-1.05,0.34-1.522c0.225-0.476,0.533-0.861,0.924-1.164
		c0.256-0.194,0.567-0.33,0.938-0.405c0.367-0.076,0.869-0.112,1.5-0.112h6.448V106.248z"/>
	<path fill-rule="evenodd" clip-rule="evenodd" fill="#B6D11C" d="M153.264,99.867h3.044v4.059h2.796v2.322h-2.796v4.021
		c0,0.574,0.015,0.975,0.046,1.203c0.029,0.227,0.097,0.418,0.201,0.566c0.24,0.365,0.693,0.547,1.354,0.547h1.195v2.322h-2.188
		c-0.631,0-1.162-0.064-1.586-0.192c-0.424-0.129-0.785-0.341-1.092-0.647c-0.379-0.344-0.635-0.758-0.773-1.239
		c-0.133-0.485-0.201-1.168-0.201-2.058v-4.523h-1.918v-2.322h1.918V99.867z"/>
	<path fill-rule="evenodd" clip-rule="evenodd" fill="#B6D11C" d="M171.34,112.225v2.684h-13.036v-4.004
		c0-0.9,0.106-1.664,0.316-2.279c0.212-0.621,0.534-1.148,0.969-1.582c0.197-0.196,0.396-0.364,0.599-0.5
		c0.201-0.138,0.441-0.236,0.711-0.307c0.271-0.066,0.582-0.114,0.938-0.146c0.35-0.028,0.791-0.046,1.316-0.046h2.459
		c0.359,0,0.714-0.033,1.059-0.102c0.346-0.064,0.604-0.143,0.768-0.229c0.496-0.301,0.743-0.743,0.743-1.336
		c0-0.329-0.07-0.628-0.214-0.903c-0.143-0.274-0.334-0.48-0.574-0.614c-0.166-0.087-0.414-0.162-0.745-0.221
		c-0.329-0.058-0.677-0.091-1.036-0.091h-7.058v-2.682h7.735c1.035,0,1.878,0.084,2.523,0.246c0.648,0.166,1.173,0.43,1.581,0.791
		c0.403,0.359,0.725,0.838,0.958,1.432c0.231,0.594,0.348,1.23,0.348,1.906c0,0.916-0.161,1.715-0.484,2.389
		c-0.322,0.678-0.766,1.174-1.338,1.49c-0.747,0.404-1.868,0.609-3.354,0.609h-2.117c-0.773,0-1.355,0.05-1.73,0.157
		c-0.371,0.104-0.641,0.282-0.807,0.536c-0.093,0.136-0.172,0.348-0.238,0.64c-0.068,0.289-0.102,0.571-0.102,0.836v1.325H171.34z"
		/>
	<path fill-rule="evenodd" clip-rule="evenodd" fill="#B6D11C" d="M178.458,99.775c4.93,0,7.395,2.535,7.395,7.603
		c0,2.584-0.578,4.499-1.734,5.749c-1.158,1.248-2.932,1.873-5.324,1.873c-2.631,0-4.584-0.622-5.861-1.861
		c-1.278-1.242-1.918-3.146-1.918-5.717c0-2.631,0.604-4.564,1.805-5.796C174.022,100.393,175.902,99.775,178.458,99.775
		L178.458,99.775z M178.276,102.324c-0.707,0-1.335,0.154-1.883,0.459c-0.55,0.309-0.967,0.732-1.252,1.271
		c-0.166,0.345-0.306,0.818-0.43,1.422c-0.117,0.611-0.18,1.203-0.18,1.787c0,0.689,0.073,1.38,0.216,2.066
		c0.141,0.689,0.317,1.217,0.528,1.593c0.301,0.522,0.722,0.911,1.264,1.155c0.541,0.248,1.232,0.372,2.075,0.372
		c0.812,0,1.466-0.146,1.962-0.437c0.497-0.293,0.893-0.762,1.193-1.406c0.168-0.341,0.303-0.832,0.407-1.459
		c0.106-0.625,0.157-1.257,0.157-1.885c0-0.793-0.092-1.527-0.281-2.197c-0.188-0.674-0.445-1.209-0.777-1.595
		c-0.301-0.362-0.72-0.643-1.252-0.843C179.491,102.424,178.909,102.324,178.276,102.324z"/>
	<path fill-rule="evenodd" clip-rule="evenodd" fill="#B6D11C" d="M192.655,99.775c4.93,0,7.395,2.535,7.395,7.603
		c0,2.584-0.577,4.499-1.732,5.749c-1.162,1.248-2.934,1.873-5.325,1.873c-2.632,0-4.585-0.622-5.861-1.861
		c-1.278-1.242-1.919-3.146-1.919-5.717c0-2.631,0.602-4.564,1.807-5.796C188.219,100.393,190.098,99.775,192.655,99.775
		L192.655,99.775z M192.473,102.324c-0.706,0-1.334,0.154-1.883,0.459c-0.549,0.309-0.965,0.732-1.251,1.271
		c-0.167,0.345-0.31,0.818-0.427,1.422c-0.121,0.611-0.183,1.203-0.183,1.787c0,0.689,0.069,1.38,0.215,2.066
		c0.144,0.689,0.319,1.217,0.528,1.593c0.301,0.522,0.723,0.911,1.265,1.155c0.541,0.248,1.231,0.372,2.074,0.372
		c0.812,0,1.465-0.146,1.963-0.437c0.495-0.293,0.892-0.762,1.196-1.406c0.162-0.341,0.297-0.832,0.404-1.459
		c0.107-0.625,0.156-1.257,0.156-1.885c0-0.793-0.092-1.527-0.279-2.197c-0.189-0.674-0.449-1.209-0.777-1.595
		c-0.301-0.362-0.721-0.643-1.254-0.843C193.688,102.424,193.104,102.324,192.473,102.324z"/>
	<path fill-rule="evenodd" clip-rule="evenodd" fill="#B6D11C" d="M206.852,99.775c4.932,0,7.396,2.535,7.396,7.603
		c0,2.584-0.578,4.499-1.735,5.749c-1.159,1.248-2.931,1.873-5.323,1.873c-2.631,0-4.584-0.622-5.862-1.861
		c-1.278-1.242-1.917-3.146-1.917-5.717c0-2.631,0.601-4.564,1.805-5.796C202.417,100.393,204.295,99.775,206.852,99.775
		L206.852,99.775z M206.672,102.324c-0.707,0-1.336,0.154-1.884,0.459c-0.549,0.309-0.964,0.732-1.253,1.271
		c-0.164,0.345-0.309,0.818-0.428,1.422c-0.121,0.611-0.18,1.203-0.18,1.787c0,0.689,0.072,1.38,0.213,2.066
		c0.144,0.689,0.32,1.217,0.531,1.593c0.299,0.522,0.722,0.911,1.263,1.155c0.542,0.248,1.232,0.372,2.075,0.372
		c0.811,0,1.465-0.146,1.962-0.437c0.498-0.293,0.894-0.762,1.193-1.406c0.167-0.341,0.304-0.832,0.407-1.459
		c0.104-0.625,0.158-1.257,0.158-1.885c0-0.793-0.093-1.527-0.281-2.197c-0.188-0.674-0.449-1.209-0.777-1.595
		c-0.301-0.362-0.719-0.643-1.253-0.843C207.885,102.424,207.302,102.324,206.672,102.324z"/>
</g>
</svg>
