<?xml version="1.0" encoding="utf-8"?>
<!-- Generator: Adobe Illustrator 21.0.2, SVG Export Plug-In . SVG Version: 6.00 Build 0)  -->
<svg version="1.1" id="Capa_1" xmlns="http://www.w3.org/2000/svg" xmlns:xlink="http://www.w3.org/1999/xlink" x="0px" y="0px"
	 viewBox="0 0 512 512" style="enable-background:new 0 0 512 512;" xml:space="preserve">
<g>
	<g>
		<path d="M415.2,343.9c-8.9-6.1-14.3-16.3-14.3-27.1v-24.5h-15.2v24.5c0,15.8,7.8,30.7,20.8,39.7c15.5,10.7,24.8,28.3,24.8,47.2
			v18.1h-93.2H140.4H51.2v-18.1c0-18.8,9.3-36.5,24.8-47.2c13-9,20.8-23.8,20.8-39.7V192.1c0-71.2,53-132.6,123.3-142.9l6.5-1V27.9
			c0-7,5.7-12.7,12.7-12.7c7,0,12.7,5.7,12.7,12.7v20l6.7,0.8c29.5,3.5,56.8,15.9,79,35.7l10.1-11.3c-22.8-20.4-50.6-33.7-80.6-38.6
			v-6.7c0-15.4-12.5-27.9-27.9-27.9s-27.9,12.5-27.9,27.9v7.4c-35,6.6-67,25-90.5,52.1c-25.3,29-39.2,66.3-39.2,104.8v124.7
			c0,10.8-5.3,21-14.3,27.1C47.7,357.5,36,379.8,36,403.6V437h107.3c10.8,43.8,50.2,75,95.9,75s85.1-31.2,95.9-75h111.4v-33.3
			C446.6,379.8,434.9,357.5,415.2,343.9z M239.3,496.8c-37.4,0-69.8-24.7-80.2-59.8h160.4C309.1,472.1,276.7,496.8,239.3,496.8z"/>
	</g>
</g>
<g>
	<g>
		<path d="M387.3,92.3c-48.9,0-88.7,39.8-88.7,88.7s39.8,88.7,88.7,88.7S476,229.9,476,181C476,132.1,436.2,92.3,387.3,92.3z
			 M387.3,254.5c-40.5,0-73.5-33-73.5-73.5s33-73.5,73.5-73.5s73.5,33,73.5,73.5C460.8,221.5,427.8,254.5,387.3,254.5z"/>
	</g>
</g>
<g>
	<g>
		<rect x="382.7" y="140.4" width="15.2" height="58.8"/>
	</g>
</g>
<g>
	<g>
		<rect x="382.7" y="209.4" width="15.2" height="15.2"/>
	</g>
</g>
</svg>
