<?xml version="1.0" encoding="utf-8"?>
<!-- Generator: Adobe Illustrator 21.0.2, SVG Export Plug-In . SVG Version: 6.00 Build 0)  -->
<svg version="1.1" id="Capa_1" xmlns="http://www.w3.org/2000/svg" xmlns:xlink="http://www.w3.org/1999/xlink" x="0px" y="0px"
	 viewBox="0 0 496 496" style="enable-background:new 0 0 496 496;" xml:space="preserve">
<g>
	<g>
		<g>
			<path d="M120,376h-16V232h288v144h-16v16h32V216h-56v-0.8c18.2-3.7,32-19.9,32-39.2c0-13.1-6.4-24.7-16.2-32h0.2V96
				c0-20-14.8-36.7-34-39.6C321.9,22.9,289.7,0,253.8,0H248c-66.2,0-120,53.8-120,120v24h0.2c-9.8,7.3-16.2,18.9-16.2,32
				c0,19.3,13.8,35.5,32,39.2v0.8H88v176h32L120,376L120,376z M336,216H160v-64h31.4c35.2,0,68.5-12.5,94.8-35.4l2.4,4.1
				c10.2,17,27.9,28.3,47.3,30.8L336,216L336,216z M368,176c0,10.4-6.7,19.2-16,22.5v-45C361.3,156.8,368,165.6,368,176z M144,120
				c0-57.3,46.7-104,104-104h5.8c30.7,0,58.1,20.6,66.6,50.2L322,72h6c13.2,0,24,10.8,24,24v40.8c-2.6-0.5-5.3-0.8-8-0.8
				c-16.9,0-32.9-9-41.6-23.6l-12.8-21.3l-7.2,7.2c-24.3,24.3-56.6,37.7-90.9,37.7H152c-2.7,0-5.4,0.3-8,0.8V120z M128,176
				c0-10.4,6.7-19.2,16-22.5v45C134.7,195.2,128,186.4,128,176z"/>
			<polygon points="152,248 120,248 120,280 136,280 136,264 152,264 			"/>
			<polygon points="376,280 376,248 344,248 344,264 360,264 360,280 			"/>
			<polygon points="120,328 120,360 152,360 152,344 136,344 136,328 			"/>
			<polygon points="344,360 376,360 376,328 360,328 360,344 344,344 			"/>
			<path d="M447.8,390.2c-2.4-14.2-8.4-27.9-17.5-39.6l-12.6,9.8c7.4,9.5,12.4,20.7,14.3,32.4l14.5,87.2h-49.1l-37.6-94
				c-6.3-15.8-21.4-26-38.4-26c-22.8,0-41.4,18.6-41.4,41.6c0,5.3,1,10.4,3,15.4l25.2,63.1H187.8l25.2-63.1c2-4.9,3-10.1,3-15.5
				c0-22.8-18.6-41.4-41.4-41.4c-17,0-32.1,10.2-38.4,26l-37.6,94H49.5L64,392.8c1.9-11.6,6.9-22.8,14.3-32.4l-12.6-9.8
				c-9.1,11.6-15.1,25.3-17.5,39.6L30.6,496h434.9L447.8,390.2z M151,392c3.9-9.7,13.1-16,23.6-16c14,0,25.4,11.4,25.4,25.6
				c0,3.2-0.6,6.4-1.8,9.4l-7.8,19.6l-46.8-20L151,392z M170.6,480h-54.8l21.8-54.6l46.8,20L170.6,480z M305.7,430.6l-7.8-19.6
				c-1.2-3-1.8-6.2-1.8-9.6c0-14,11.4-25.4,25.4-25.4c10.4,0,19.7,6.3,23.6,16l7.4,18.6L305.7,430.6z M325.4,480l-13.8-34.6l46.8-20
				l21.8,54.6H325.4z"/>
			<rect x="232" y="376" width="32" height="16"/>
		</g>
	</g>
</g>
</svg>
